<svg version="1.1" id="Layer_1" xmlns="http://www.w3.org/2000/svg" xmlns:xlink="http://www.w3.org/1999/xlink" x="0px" y="0px"
	 width="100%" viewBox="0 0 1024 768" enable-background="new 0 0 1024 768" xml:space="preserve">
<path fill="#000000" opacity="1.000000" stroke="none" 
	d="
M543.854248,100.245224 
	C528.661682,96.115730 513.715576,93.609131 498.273560,92.935829 
	C454.024475,91.006477 414.400909,104.055038 378.877380,129.524612 
	C335.754120,160.443008 309.816742,202.543015 300.229523,254.812210 
	C297.753448,268.311554 297.896729,281.974701 296.350525,295.514984 
	C296.245575,296.434021 296.634277,297.574493 295.051086,298.375275 
	C295.051086,289.604431 295.051086,281.045471 295.051086,272.486481 
	C294.066956,279.622772 294.091339,286.853882 291.760132,293.782928 
	C289.323029,273.380188 292.378937,253.495163 296.720184,233.570908 
	C295.573730,237.170593 294.427277,240.770279 293.280823,244.369965 
	C292.877899,244.297653 292.475006,244.225342 292.072113,244.153030 
	C292.708160,241.145264 293.119934,238.069107 294.013031,235.139694 
	C316.190491,162.395462 361.932617,111.913345 434.980743,88.368286 
	C465.662415,78.478897 497.324310,77.153191 529.237427,83.380775 
	C600.719604,97.329933 651.584839,137.980896 683.748962,202.585953 
	C693.159912,221.488953 697.320557,242.135849 700.226868,263.005707 
	C703.473328,286.318848 702.640564,309.510895 698.317566,332.553070 
	C690.244446,375.583374 670.383484,412.555176 639.252075,443.181396 
	C606.104980,475.790497 565.978455,494.662323 519.999207,501.030670 
	C512.274780,502.100525 504.441315,502.765900 496.580902,502.204742 
	C494.081238,502.026276 492.448486,501.510681 494.047394,498.401154 
	C481.900024,498.604706 470.110107,498.043365 458.466705,495.748474 
	C457.661011,495.589691 456.376068,495.555725 456.145325,493.322723 
	C461.269562,493.950714 466.223663,494.533081 471.170441,495.172028 
	C475.126770,495.683014 478.944489,496.286011 482.768250,493.990204 
	C484.463898,492.972137 486.973938,493.026001 489.105957,493.063904 
	C507.162598,493.384613 524.760925,489.337494 542.519043,487.702057 
	C557.840332,486.291046 570.259521,479.817474 583.279785,473.936188 
	C596.936157,467.767578 609.373840,459.310760 621.093628,449.857849 
	C632.710754,440.487732 642.611877,429.500153 652.052307,418.042053 
	C652.894958,417.019348 653.586060,415.861938 654.258423,414.714874 
	C654.460815,414.369476 654.361755,413.847382 654.499939,412.284882 
	C630.934814,443.343262 602.039368,465.827850 566.481628,480.165161 
	C566.039307,477.671478 567.381226,477.337494 568.311401,476.836487 
	C583.542053,468.633087 597.590393,458.610535 611.502747,448.427368 
	C622.148376,440.635376 631.238098,431.163513 639.077576,420.472748 
	C630.248108,427.661285 621.043091,434.281097 611.075989,439.941803 
	C616.672241,434.615082 621.763489,428.571777 628.011047,424.169373 
	C633.900085,420.019562 638.051575,414.561615 642.196167,409.159058 
	C660.913879,384.760132 674.109985,357.533722 678.957336,327.115021 
	C681.732971,309.696625 683.015320,292.033661 682.101929,274.068634 
	C681.123108,254.816299 677.300049,236.482635 671.056274,218.599854 
	C663.859741,197.988113 652.575012,179.371948 638.721802,162.604630 
	C613.668152,132.280807 581.923279,111.709694 543.854248,100.245224 
M677.486084,373.990753 
	C685.300110,356.850220 690.227844,338.899567 692.733765,320.265991 
	C689.005249,341.916351 681.083008,362.247040 672.239136,383.697571 
	C675.101379,380.267517 675.845032,377.323242 677.486084,373.990753 
z"/>
<path fill="#000000" opacity="1.000000" stroke="none" 
	d="
M412.271240,404.409332 
	C412.366058,408.015442 412.096344,411.249573 412.687500,414.317841 
	C415.062653,426.645844 425.425690,433.653564 438.005493,432.540558 
	C451.641144,431.334076 463.302216,425.805878 473.944702,417.673828 
	C491.295959,404.415497 504.738464,387.643402 515.601562,368.962555 
	C542.897034,322.023773 562.859863,272.048553 575.252136,219.169220 
	C578.785645,204.091370 580.721680,188.681854 577.769836,173.138260 
	C577.460999,171.511932 576.955017,169.910110 576.404541,168.344772 
	C572.889465,158.350113 565.666504,154.419327 555.222778,156.955734 
	C541.095886,160.386658 529.431152,168.416916 518.348206,177.318634 
	C493.519867,197.260513 474.989441,222.283600 460.081390,250.196152 
	C452.143219,265.058899 444.326385,280.004883 440.945740,296.675659 
	C439.359497,304.497803 438.709625,312.522491 443.091858,319.997253 
	C445.268860,323.710632 448.219025,326.485443 451.830627,328.710236 
	C453.461060,329.714630 454.928955,331.219086 453.941956,333.233612 
	C452.839630,335.483490 450.647491,335.123230 448.670654,334.422272 
	C445.410248,333.266174 442.999451,330.921875 440.924347,328.303528 
	C434.390167,320.058777 432.003693,310.675903 433.110504,300.216309 
	C435.178741,280.671661 441.994141,262.719482 451.157654,245.555435 
	C464.185791,221.152618 480.053375,198.799515 499.991425,179.522064 
	C511.931183,167.977890 525.151794,158.218628 540.803101,152.127411 
	C546.751648,149.812317 552.927979,148.455856 559.241760,147.890259 
	C574.240723,146.546646 584.301636,155.916489 586.388123,172.190964 
	C588.702393,190.242264 585.486938,207.732773 581.306824,225.031677 
	C570.833496,268.374359 555.952332,310.247406 536.652161,350.420227 
	C524.980835,374.713837 510.203735,397.133423 489.992493,415.398743 
	C477.092712,427.056458 462.763947,436.332275 445.033264,438.777008 
	C436.201416,439.994812 427.437378,439.955902 419.135010,435.896179 
	C406.001740,429.474213 401.895142,417.673462 402.208557,404.620392 
	C402.890167,376.232208 436.637054,342.850220 469.802429,341.497620 
	C480.766357,341.050476 491.381958,341.634644 501.748505,345.253204 
	C503.567657,345.888184 505.733521,346.279510 506.036896,349.094635 
	C503.456055,351.229828 500.480408,350.253967 497.650085,349.874634 
	C485.379700,348.230347 473.224640,347.646759 461.000549,350.806824 
	C435.600342,357.373016 416.375336,378.125275 412.271240,404.409332 
z"/>
<path fill="#000000" opacity="1.000000" stroke="none" 
	d="
M393.613220,576.721313 
	C398.012756,565.339783 402.543915,554.413208 406.404236,543.254639 
	C407.951538,538.782043 410.162201,537.437683 414.710754,537.564087 
	C425.178619,537.854858 425.490082,537.600159 426.540131,547.914307 
	C428.056305,562.806580 429.087433,577.748474 430.305115,592.670837 
	C430.981323,600.957275 431.639343,609.245422 432.258057,617.536255 
	C432.498291,620.755127 432.994720,623.903625 427.937866,624.005493 
	C420.071899,624.163940 419.372131,623.967102 418.920837,618.295349 
	C417.495697,600.384033 416.094513,582.470825 414.678680,564.558777 
	C414.575531,563.253967 414.759277,561.864502 413.083771,560.192322 
	C409.378326,569.917175 405.797974,579.309509 402.220856,588.703003 
	C398.310974,598.970398 394.367981,609.225342 390.518341,619.515320 
	C389.408447,622.481995 387.758759,624.174377 384.292999,624.078369 
	C380.931885,623.985291 379.782043,622.007935 378.768066,619.320679 
	C371.895477,601.106812 364.945099,582.922241 358.006042,564.733521 
	C357.661133,563.829407 357.547089,562.738831 356.205414,562.221558 
	C354.496521,563.967773 354.478058,566.228699 354.304565,568.521484 
	C353.011383,585.609558 351.664246,602.693481 350.312988,619.777100 
	C349.838409,625.777649 345.161133,623.592590 341.906921,623.931580 
	C338.521545,624.284119 336.499237,622.999023 336.838501,619.103516 
	C337.876953,607.179016 338.821136,595.246094 339.770782,583.313965 
	C340.800049,570.381531 341.770325,557.444397 342.827545,544.514282 
	C343.000977,542.393250 343.489777,540.298035 343.913513,537.695251 
	C348.798096,537.695251 353.424591,537.763245 358.047943,537.671875 
	C361.235413,537.608948 361.767181,540.154236 362.559540,542.212952 
	C367.878784,556.033386 372.943268,569.953796 378.418030,583.711365 
	C380.136780,588.030396 380.880585,592.956787 384.866394,597.132690 
	C388.989807,590.496277 390.708435,583.549988 393.613220,576.721313 
z"/>
<path fill="#000000" opacity="1.000000" stroke="none" 
	d="
M630.362915,616.846619 
	C630.031433,619.751221 631.419067,622.849548 627.437805,623.742676 
	C621.548035,625.064026 616.507080,623.781433 614.048035,620.032471 
	C605.189758,606.527344 596.410156,592.970276 587.471680,579.518494 
	C583.167542,573.040955 579.272827,566.260986 573.692017,559.634949 
	C573.535400,563.198486 573.311401,565.966492 573.308777,568.734741 
	C573.293152,585.389648 573.191101,602.046509 573.425293,618.698364 
	C573.501343,624.108032 570.292542,623.978027 566.584290,623.958557 
	C562.884460,623.939148 559.706116,624.051636 559.745239,618.655884 
	C559.928772,593.341309 559.898743,568.024475 559.775574,542.709229 
	C559.755981,538.685547 561.404053,537.898193 565.093628,537.523743 
	C571.526123,536.870911 575.346680,539.196533 578.832397,544.683105 
	C589.900879,562.104919 601.570801,579.144775 613.019348,596.324890 
	C613.932190,597.694824 614.930420,599.007874 617.002563,600.274902 
	C617.002563,597.560791 617.002441,594.846680 617.002625,592.132568 
	C617.003479,576.143799 616.986694,560.155029 617.013977,544.166260 
	C617.025085,537.645447 617.136108,537.882324 624.376160,537.560120 
	C629.346863,537.338806 630.488586,539.234253 630.448120,543.917969 
	C630.239807,568.066223 630.358643,592.217346 630.362915,616.846619 
z"/>
<path fill="#000000" opacity="1.000000" stroke="none" 
	d="
M671.077393,607.196106 
	C679.122925,585.473633 687.108154,564.143250 694.831848,542.718628 
	C696.270813,538.727234 698.420715,537.388550 702.539185,537.592529 
	C713.200500,538.120728 711.351257,535.516724 715.608765,547.047241 
	C724.359436,570.747131 733.108765,594.447510 741.839600,618.154663 
	C742.343750,619.523621 743.233093,620.830505 742.839111,622.408020 
	C735.209106,625.677307 730.246460,623.597473 727.510071,616.429016 
	C722.017700,602.040894 726.090515,604.100403 710.063232,603.929321 
	C703.407166,603.858276 696.748230,603.982422 690.093872,603.851501 
	C687.190674,603.794434 685.405945,604.745300 684.586853,607.674561 
	C683.827515,610.390137 682.668091,612.991516 681.749207,615.665344 
	C678.681396,624.592041 676.149963,625.819031 665.853149,622.840881 
	C666.607605,617.475159 669.363647,612.687805 671.077393,607.196106 
M696.798157,591.894287 
	C702.460815,591.880371 708.124268,591.804565 713.785828,591.875305 
	C717.266541,591.918762 718.297119,590.506775 717.103760,587.236694 
	C715.620789,583.173279 714.301086,579.050476 712.843567,574.977417 
	C710.255066,567.744080 707.615845,560.528870 704.493591,551.914917 
	C699.463745,565.970154 694.567932,578.352905 690.688721,591.531250 
	C692.956848,591.684326 694.430603,591.783752 696.798157,591.894287 
z"/>
<path fill="#000000" opacity="1.000000" stroke="none" 
	d="
M473.692200,581.000000 
	C473.692322,568.011169 473.826813,555.520142 473.617310,543.034851 
	C473.548309,538.921631 474.882599,537.513184 479.030182,537.585388 
	C491.348755,537.799805 503.677673,537.851868 515.993591,537.572815 
	C520.805237,537.463806 521.280701,539.772400 521.400269,543.658264 
	C521.531921,547.936768 520.284363,549.632996 515.771118,549.450684 
	C507.957642,549.134949 500.119354,549.488281 492.296875,549.316772 
	C488.685669,549.237610 487.122864,550.463684 487.260254,554.203674 
	C487.455780,559.525085 487.412933,564.861511 487.277466,570.186523 
	C487.195953,573.389709 488.512970,574.720398 491.692352,574.679321 
	C498.684875,574.588928 505.687439,574.846497 512.670105,574.566956 
	C517.672485,574.366638 517.247253,577.498474 517.341675,580.769043 
	C517.442200,584.251038 517.310852,587.159363 512.562317,586.941284 
	C506.080353,586.643555 499.586914,586.599365 493.098938,586.427307 
	C489.004822,586.318848 486.993134,587.943176 487.270844,592.375183 
	C487.561829,597.018860 487.443298,601.700256 487.273865,606.356812 
	C487.148407,609.804321 488.593811,611.145752 491.984222,611.103088 
	C499.809143,611.004517 507.644348,611.304321 515.459717,611.016846 
	C520.601929,610.827698 521.423950,613.329956 521.471863,617.725342 
	C521.520264,622.157043 520.271118,624.072388 515.561951,623.993347 
	C503.409943,623.789307 491.250305,623.843811 479.097015,624.020813 
	C474.992096,624.080627 473.559021,622.580444 473.624634,618.465942 
	C473.821167,606.146729 473.693634,593.822388 473.692200,581.000000 
z"/>
<path fill="#000000" opacity="1.000000" stroke="none" 
	d="
M295.393921,614.942627 
	C295.395752,616.932678 295.338684,618.434204 295.411011,619.929504 
	C295.542084,622.638550 294.309296,623.969055 291.593719,623.944946 
	C290.428436,623.934570 289.254211,623.877747 288.098877,623.992065 
	C283.672394,624.430237 281.647186,622.712219 281.892700,618.033630 
	C282.171539,612.719116 281.966400,607.379211 281.972076,602.050354 
	C281.992493,582.899475 282.004761,563.748657 282.038513,544.597778 
	C282.049316,538.467163 288.526154,534.895935 293.938416,538.067993 
	C296.126984,539.350647 295.304932,541.640259 295.310455,543.509827 
	C295.380371,567.156860 295.377563,590.804138 295.393921,614.942627 
z"/>
<path fill="#000000" opacity="1.000000" stroke="none" 
	d="
M447.715027,494.275940 
	C415.287384,487.035583 387.319336,471.755341 362.111633,451.120270 
	C338.122742,431.482910 319.990082,407.234192 306.484375,379.436523 
	C305.498566,377.407471 304.170380,375.414917 305.043671,372.291412 
	C335.754700,435.624115 384.934998,476.333405 453.584137,493.752716 
	C451.259552,495.422333 449.667023,493.996552 447.715027,494.275940 
z"/>
<path fill="#000000" opacity="1.000000" stroke="none" 
	d="
M402.608276,470.367310 
	C393.276215,465.297516 384.597198,459.908630 377.060944,452.557129 
	C405.846436,472.072327 437.207581,484.857391 471.701782,489.840393 
	C467.413513,490.913818 463.376495,490.341919 459.398285,489.484894 
	C452.094147,487.911377 444.810486,485.290649 437.576263,484.605957 
	C428.717560,483.767487 421.457703,479.257172 413.240906,477.315979 
	C408.868164,476.282990 406.612396,472.406616 402.608276,470.367310 
z"/>
<path fill="#000000" opacity="1.000000" stroke="none" 
	d="
M407.925354,462.184692 
	C406.519440,461.382935 405.090607,461.078979 404.794922,459.197388 
	C408.141693,459.026855 410.664154,460.160614 412.679352,462.913788 
	C410.770386,464.013794 409.570404,462.801208 407.925354,462.184692 
z"/>
</svg>